<mxfile host="app.diagrams.net" modified="2022-08-05T21:45:10.404Z" agent="5.0 (Macintosh; Intel Mac OS X 10_15_7) AppleWebKit/537.36 (KHTML, like Gecko) Chrome/104.0.5112.81 Safari/537.36" etag="VafGq86COLK86KALxUym" version="20.2.3" type="github">
  <diagram id="gQR8EylZDZe_ymqgIz2c" name="Page-1">
    <mxGraphModel dx="2036" dy="800" grid="1" gridSize="10" guides="1" tooltips="1" connect="1" arrows="1" fold="1" page="1" pageScale="1" pageWidth="850" pageHeight="1100" math="0" shadow="0">
      <root>
        <mxCell id="0" />
        <mxCell id="1" parent="0" />
        <mxCell id="wFV-Ma986XC1qe6eK7_0-6" value="AWS" style="rounded=0;whiteSpace=wrap;html=1;verticalAlign=bottom;" vertex="1" parent="1">
          <mxGeometry x="-90" y="110" width="730" height="310" as="geometry" />
        </mxCell>
        <mxCell id="wFV-Ma986XC1qe6eK7_0-10" style="edgeStyle=orthogonalEdgeStyle;rounded=0;orthogonalLoop=1;jettySize=auto;html=1;exitX=1;exitY=0.5;exitDx=0;exitDy=0;entryX=0;entryY=0;entryDx=0;entryDy=27.5;entryPerimeter=0;" edge="1" parent="1" source="wFV-Ma986XC1qe6eK7_0-1" target="wFV-Ma986XC1qe6eK7_0-9">
          <mxGeometry relative="1" as="geometry" />
        </mxCell>
        <mxCell id="wFV-Ma986XC1qe6eK7_0-1" value="Customer Service" style="rounded=0;whiteSpace=wrap;html=1;" vertex="1" parent="1">
          <mxGeometry x="340" y="130" width="120" height="60" as="geometry" />
        </mxCell>
        <mxCell id="wFV-Ma986XC1qe6eK7_0-7" style="edgeStyle=orthogonalEdgeStyle;rounded=0;orthogonalLoop=1;jettySize=auto;html=1;exitX=1;exitY=0.25;exitDx=0;exitDy=0;" edge="1" parent="1" source="wFV-Ma986XC1qe6eK7_0-2" target="wFV-Ma986XC1qe6eK7_0-1">
          <mxGeometry relative="1" as="geometry" />
        </mxCell>
        <mxCell id="wFV-Ma986XC1qe6eK7_0-8" style="edgeStyle=orthogonalEdgeStyle;rounded=0;orthogonalLoop=1;jettySize=auto;html=1;exitX=1;exitY=0.75;exitDx=0;exitDy=0;entryX=0;entryY=0.5;entryDx=0;entryDy=0;" edge="1" parent="1" source="wFV-Ma986XC1qe6eK7_0-2" target="wFV-Ma986XC1qe6eK7_0-3">
          <mxGeometry relative="1" as="geometry" />
        </mxCell>
        <mxCell id="wFV-Ma986XC1qe6eK7_0-2" value="API Gateway" style="rounded=0;whiteSpace=wrap;html=1;" vertex="1" parent="1">
          <mxGeometry x="160" y="220" width="120" height="60" as="geometry" />
        </mxCell>
        <mxCell id="wFV-Ma986XC1qe6eK7_0-11" style="edgeStyle=orthogonalEdgeStyle;rounded=0;orthogonalLoop=1;jettySize=auto;html=1;exitX=1;exitY=0.5;exitDx=0;exitDy=0;entryX=0;entryY=0.5;entryDx=0;entryDy=0;entryPerimeter=0;" edge="1" parent="1" source="wFV-Ma986XC1qe6eK7_0-3" target="wFV-Ma986XC1qe6eK7_0-9">
          <mxGeometry relative="1" as="geometry" />
        </mxCell>
        <mxCell id="wFV-Ma986XC1qe6eK7_0-18" style="edgeStyle=orthogonalEdgeStyle;rounded=0;orthogonalLoop=1;jettySize=auto;html=1;exitX=0.5;exitY=1;exitDx=0;exitDy=0;entryX=0.5;entryY=0;entryDx=0;entryDy=0;" edge="1" parent="1" source="wFV-Ma986XC1qe6eK7_0-3" target="wFV-Ma986XC1qe6eK7_0-16">
          <mxGeometry relative="1" as="geometry" />
        </mxCell>
        <mxCell id="wFV-Ma986XC1qe6eK7_0-3" value="Order Service" style="rounded=0;whiteSpace=wrap;html=1;" vertex="1" parent="1">
          <mxGeometry x="350" y="250" width="120" height="60" as="geometry" />
        </mxCell>
        <mxCell id="wFV-Ma986XC1qe6eK7_0-5" style="edgeStyle=orthogonalEdgeStyle;rounded=0;orthogonalLoop=1;jettySize=auto;html=1;entryX=0;entryY=0.5;entryDx=0;entryDy=0;" edge="1" parent="1" source="wFV-Ma986XC1qe6eK7_0-4" target="wFV-Ma986XC1qe6eK7_0-2">
          <mxGeometry relative="1" as="geometry" />
        </mxCell>
        <mxCell id="wFV-Ma986XC1qe6eK7_0-4" value="" style="verticalLabelPosition=bottom;verticalAlign=top;html=1;shadow=0;dashed=0;strokeWidth=1;shape=mxgraph.android.phone2;strokeColor=#c0c0c0;" vertex="1" parent="1">
          <mxGeometry x="-30" y="190" width="57.89" height="120" as="geometry" />
        </mxCell>
        <mxCell id="wFV-Ma986XC1qe6eK7_0-9" value="Relational Database" style="shape=cylinder3;whiteSpace=wrap;html=1;boundedLbl=1;backgroundOutline=1;size=15;" vertex="1" parent="1">
          <mxGeometry x="560" y="195" width="60" height="80" as="geometry" />
        </mxCell>
        <mxCell id="wFV-Ma986XC1qe6eK7_0-12" value="On Prem" style="rounded=0;whiteSpace=wrap;html=1;verticalAlign=bottom;" vertex="1" parent="1">
          <mxGeometry x="-90" y="440" width="730" height="160" as="geometry" />
        </mxCell>
        <mxCell id="wFV-Ma986XC1qe6eK7_0-13" value="Discount Provider&amp;nbsp;" style="rounded=0;whiteSpace=wrap;html=1;" vertex="1" parent="1">
          <mxGeometry x="350" y="470" width="120" height="60" as="geometry" />
        </mxCell>
        <mxCell id="wFV-Ma986XC1qe6eK7_0-15" style="edgeStyle=orthogonalEdgeStyle;rounded=0;orthogonalLoop=1;jettySize=auto;html=1;exitX=1;exitY=0.5;exitDx=0;exitDy=0;entryX=0;entryY=0.5;entryDx=0;entryDy=0;" edge="1" parent="1" source="wFV-Ma986XC1qe6eK7_0-14" target="wFV-Ma986XC1qe6eK7_0-13">
          <mxGeometry relative="1" as="geometry" />
        </mxCell>
        <mxCell id="wFV-Ma986XC1qe6eK7_0-14" value="Point of Sale" style="rounded=0;whiteSpace=wrap;html=1;" vertex="1" parent="1">
          <mxGeometry x="150" y="470" width="120" height="60" as="geometry" />
        </mxCell>
        <mxCell id="wFV-Ma986XC1qe6eK7_0-19" style="edgeStyle=orthogonalEdgeStyle;rounded=0;orthogonalLoop=1;jettySize=auto;html=1;" edge="1" parent="1" source="wFV-Ma986XC1qe6eK7_0-16" target="wFV-Ma986XC1qe6eK7_0-13">
          <mxGeometry relative="1" as="geometry" />
        </mxCell>
        <mxCell id="wFV-Ma986XC1qe6eK7_0-22" style="edgeStyle=orthogonalEdgeStyle;rounded=0;orthogonalLoop=1;jettySize=auto;html=1;exitX=1;exitY=0.5;exitDx=0;exitDy=0;entryX=0;entryY=0;entryDx=0;entryDy=52.5;entryPerimeter=0;" edge="1" parent="1" source="wFV-Ma986XC1qe6eK7_0-16" target="wFV-Ma986XC1qe6eK7_0-20">
          <mxGeometry relative="1" as="geometry" />
        </mxCell>
        <mxCell id="wFV-Ma986XC1qe6eK7_0-16" value="Discount and Promotion Service" style="rounded=0;whiteSpace=wrap;html=1;" vertex="1" parent="1">
          <mxGeometry x="350" y="330" width="120" height="60" as="geometry" />
        </mxCell>
        <mxCell id="wFV-Ma986XC1qe6eK7_0-20" value="MongoDB" style="shape=cylinder3;whiteSpace=wrap;html=1;boundedLbl=1;backgroundOutline=1;size=15;" vertex="1" parent="1">
          <mxGeometry x="560" y="310" width="60" height="80" as="geometry" />
        </mxCell>
        <mxCell id="wFV-Ma986XC1qe6eK7_0-24" style="edgeStyle=orthogonalEdgeStyle;rounded=0;orthogonalLoop=1;jettySize=auto;html=1;" edge="1" parent="1" source="wFV-Ma986XC1qe6eK7_0-23" target="wFV-Ma986XC1qe6eK7_0-16">
          <mxGeometry relative="1" as="geometry" />
        </mxCell>
        <mxCell id="wFV-Ma986XC1qe6eK7_0-23" value="" style="sketch=0;points=[[0,0,0],[0.25,0,0],[0.5,0,0],[0.75,0,0],[1,0,0],[0,1,0],[0.25,1,0],[0.5,1,0],[0.75,1,0],[1,1,0],[0,0.25,0],[0,0.5,0],[0,0.75,0],[1,0.25,0],[1,0.5,0],[1,0.75,0]];outlineConnect=0;fontColor=#232F3E;gradientColor=#FF4F8B;gradientDirection=north;fillColor=#BC1356;strokeColor=#ffffff;dashed=0;verticalLabelPosition=bottom;verticalAlign=top;align=center;html=1;fontSize=12;fontStyle=0;aspect=fixed;shape=mxgraph.aws4.resourceIcon;resIcon=mxgraph.aws4.eventbridge;" vertex="1" parent="1">
          <mxGeometry x="170" y="330" width="49" height="49" as="geometry" />
        </mxCell>
      </root>
    </mxGraphModel>
  </diagram>
</mxfile>
